<?xml version="1.0" encoding="UTF-8"?>
<svg width="16px" height="16px" viewBox="0 0 16 16" version="1.1" xmlns="http://www.w3.org/2000/svg" xmlns:xlink="http://www.w3.org/1999/xlink">
    <!-- Generator: Sketch 49.3 (51167) - http://www.bohemiancoding.com/sketch -->
    <title>LinkedIn</title>
    <desc>Created with Sketch.</desc>
    <defs></defs>
    <g id="Symbols" stroke="none" stroke-width="1" fill="none" fill-rule="evenodd">
        <g id="linkedIn/icon/colour" transform="translate(-37.000000, -35.000000)" fill="#FFFFFF">
            <g id="LinkedIn" transform="translate(37.000000, 35.000000)">
                <path d="M16,16 L12.7013987,16 L12.7013987,10.7940046 C12.7013987,9.55244546 12.6805479,7.95545413 10.9874605,7.95545413 C9.27143726,7.95545413 9.00941183,9.30848015 9.00941183,10.7049712 L9.00941183,16 L5.71428571,16 L5.71428571,5.29426928 L8.87666155,5.29426928 L8.87666155,6.75806116 L8.92183835,6.75806116 C9.36179085,5.91610041 10.4376937,5.02857143 12.0425125,5.02857143 C15.3828154,5.02857143 16,7.24529073 16,10.1287084 L16,16 Z M1.9238561,3.85268131 C0.858539993,3.85268131 0,2.98976468 0,1.92599073 C0,0.86291663 0.858539993,0 1.9238561,0 C2.98428222,0 3.84561649,0.86291663 3.84561649,1.92599073 C3.84561649,2.98976468 2.98428222,3.85268131 1.9238561,3.85268131 L1.9238561,3.85268131 Z M3.65714286,16 L0.342857143,16 L0.342857143,5.25714286 L3.65714286,5.25714286 L3.65714286,16 Z" id="Fill-33"></path>
            </g>
        </g>
    </g>
</svg>