<?xml version="1.0" encoding="UTF-8"?>
<svg width="16px" height="13px" viewBox="0 0 16 13" version="1.1" xmlns="http://www.w3.org/2000/svg" xmlns:xlink="http://www.w3.org/1999/xlink">
    <!-- Generator: Sketch 49.3 (51167) - http://www.bohemiancoding.com/sketch -->
    <title>Combined Shape</title>
    <desc>Created with Sketch.</desc>
    <defs></defs>
    <g id="Symbols" stroke="none" stroke-width="1" fill="none" fill-rule="evenodd">
        <g id="medium/icon/colour" transform="translate(-35.000000, -42.000000)" fill="#FFFFFF">
            <g id="Medium" transform="translate(35.000000, 42.000000)">
                <path d="M11.4285714,12.6530612 L10.2857143,12.6530612 L10.2857143,10.8571429 L11.4285714,10.8571429 L11.4285714,2.53061224 L8.52532058,12.6530612 L6.4950876,12.6530612 L3.59183673,2.53061224 L3.59183673,10.8571429 L4.81632653,10.8571429 L4.81632653,12.6530612 L3.59183673,12.6530612 L0,12.6530612 L0,10.8571429 C0.631182571,10.8571429 1.14285714,10.3454683 1.14285714,9.71428571 L1.14285714,3.10204082 C1.14285714,2.47085825 0.631182571,1.95918367 -4.4408921e-16,1.95918367 L0,0 L6.0030722,0 L8,7.42857143 L10.0768049,8.32667268e-17 L16,0 L16,1.95918367 C15.3688174,1.95918367 14.8571429,2.47085825 14.8571429,3.10204082 L14.8571429,9.71428571 C14.8571429,10.3454683 15.3688174,10.8571429 16,10.8571429 L16,12.6530612 L11.4285714,12.6530612 Z" id="Combined-Shape"></path>
            </g>
        </g>
    </g>
</svg>